<svg role="img" viewBox="0 0 24 24" xmlns="http://www.w3.org/2000/svg"><title>Amazon</title><path fill="#FF9900" d="M2.4 15.6C6.4 18.8 12.2 20.6 17 18.8c.4-.2.8-.4 1.1-.7.3-.3.3-.6 0-.8-.3-.2-.7-.1-1 .1-3.2 2-8.6.8-12.3-1.3-.3-.2-.7-.1-.7.3 0 .2.1.4.3.5zm3.2-2.3c.7.5 1.7.9 2.6.9 1.6 0 2.5-1 2.5-2.2 0-1.5-1.4-2-2.5-2.4-.6-.2-1.1-.5-1.1-1 0-.4.4-.7 1-.7.6 0 1.2.2 1.7.5.2.1.4 0 .4-.2l.4-.8c.1-.2 0-.4-.2-.5-.6-.3-1.4-.6-2.3-.6-1.5 0-2.4.9-2.4 2.1 0 1.3 1.2 1.9 2.4 2.3.6.2 1.1.5 1.1 1 0 .5-.4.8-1.1.8-.7 0-1.5-.3-2.1-.7-.2-.1-.4-.1-.5.2l-.3.8c-.1.2 0 .4.2.5zm8.8-3.5c0-.7-.2-1.3-.6-1.7-.5-.5-1.3-.7-2.1-.7-1.5 0-2.7 1-2.7 2.8 0 1.8 1.2 2.9 2.8 2.9.8 0 1.5-.2 2-.6.2-.1.2-.3.1-.5l-.4-.6c-.1-.2-.3-.2-.5-.1-.3.2-.7.3-1.1.3-.7 0-1.2-.5-1.3-1.2h3.4c.2 0 .4-.2.4-.4v-.2zm-3.6-.5c.1-.6.5-1 1.1-1 .6 0 .9.4 1 1h-2.1z"/></svg>
