<svg role="img" viewBox="0 0 24 24" xmlns="http://www.w3.org/2000/svg"><title>Kindle</title><path fill="#FF9900" fill-rule="evenodd" clip-rule="evenodd" d="M6 1C4.34315 1 3 2.34315 3 4V20C3 21.6569 4.34315 23 6 23H18C19.6569 23 21 21.6569 21 20V4C21 2.34315 19.6569 1 18 1H6ZM5 4C5 3.44772 5.44772 3 6 3H18C18.5523 3 19 3.44772 19 4V16H5V4Z"/><path fill="#FFFFFF" d="M7.25 18.5C8.75 19.5 10.4 19.7 12 19.7C13.6 19.7 15.25 19.5 16.75 18.5C16.95 18.35 17.2 18.6 17.05 18.8C16 20.2 14.3 21 12 21C9.7 21 8 20.2 6.95 18.8C6.8 18.6 7.05 18.35 7.25 18.5Z"/><path fill="#FFFFFF" d="M16 17.5C16.5 17.5 17 18 17 18.5C17 19 16.5 19.5 16 19.5C15.5 19.5 15 19 15 18.5C15 18 15.5 17.5 16 17.5Z"/></svg>